HIERARCHY
ROOT Hips
{
	OFFSET 0.00000 0.00000 0.00000
	CHANNELS 6 Xposition Yposition Zposition Zrotation Yrotation Xrotation 
	JOINT LHipJoint
	{
		OFFSET 0 0 0
		CHANNELS 3 Zrotation Yrotation Xrotation
		JOINT LeftUpLeg
		{
			OFFSET 1.56857 -1.73443 1.15205
			CHANNELS 3 Zrotation Yrotation Xrotation
			JOINT LeftLeg
			{
				OFFSET 2.39362 -6.57643 0.00000
				CHANNELS 3 Zrotation Yrotation Xrotation
				JOINT LeftFoot
				{
					OFFSET 2.50952 -6.89485 0.00000
					CHANNELS 3 Zrotation Yrotation Xrotation
					JOINT LeftToeBase
					{
						OFFSET 0.17171 -0.47178 1.88682
						CHANNELS 3 Zrotation Yrotation Xrotation
						End Site
						{
							OFFSET 0.00000 -0.00000 0.98146
						}
					}
				}
			}
		}
	}
	JOINT RHipJoint
	{
		OFFSET 0 0 0
		CHANNELS 3 Zrotation Yrotation Xrotation
		JOINT RightUpLeg
		{
			OFFSET -1.28153 -1.73443 1.15205
			CHANNELS 3 Zrotation Yrotation Xrotation
			JOINT RightLeg
			{
				OFFSET -2.26861 -6.23296 0.00000
				CHANNELS 3 Zrotation Yrotation Xrotation
				JOINT RightFoot
				{
					OFFSET -2.54143 -6.98254 0.00000
					CHANNELS 3 Zrotation Yrotation Xrotation
					JOINT RightToeBase
					{
						OFFSET -0.23309 -0.64041 1.93119
						CHANNELS 3 Zrotation Yrotation Xrotation
						End Site
						{
							OFFSET -0.00000 -0.00000 1.02013
						}
					}
				}
			}
		}
	}
	JOINT LowerBack
	{
		OFFSET 0 0 0
		CHANNELS 3 Zrotation Yrotation Xrotation
		JOINT Spine
		{
			OFFSET -0.07096 2.10460 -0.27878
			CHANNELS 3 Zrotation Yrotation Xrotation
			JOINT Spine1
			{
				OFFSET -0.00826 2.13662 -0.08279
				CHANNELS 3 Zrotation Yrotation Xrotation
				JOINT Neck
				{
					OFFSET 0 0 0
					CHANNELS 3 Zrotation Yrotation Xrotation
					JOINT Neck1
					{
						OFFSET 0.03239 1.77799 0.24435
						CHANNELS 3 Zrotation Yrotation Xrotation
						JOINT Head
						{
							OFFSET 0.01026 1.74194 -0.49664
							CHANNELS 3 Zrotation Yrotation Xrotation
							End Site
							{
								OFFSET 0.00170 1.83057 -0.19653
							}
						}
					}
				}
				JOINT LeftShoulder
				{
					OFFSET 0 0 0
					CHANNELS 3 Zrotation Yrotation Xrotation
					JOINT LeftArm
					{
						OFFSET 3.19178 1.35907 -0.31412
						CHANNELS 3 Zrotation Yrotation Xrotation
						JOINT LeftForeArm
						{
							OFFSET 4.85247 -0.00000 -0.00000
							CHANNELS 3 Zrotation Yrotation Xrotation
							JOINT LeftHand
							{
								OFFSET 3.55584 -0.00000 0.00000
								CHANNELS 3 Zrotation Yrotation Xrotation
								JOINT LeftFingerBase
								{
									OFFSET 0 0 0
									CHANNELS 3 Zrotation Yrotation Xrotation
									JOINT LeftHandIndex1
									{
										OFFSET 0.69320 -0.00000 0.00000
										CHANNELS 3 Zrotation Yrotation Xrotation
										End Site
										{
											OFFSET 0.55888 -0.00000 0.00000
										}
									}
								}
								JOINT LThumb
								{
									OFFSET 0 0 0
									CHANNELS 3 Zrotation Yrotation Xrotation
									End Site
									{
										OFFSET 0.56741 -0.00000 0.56741
									}
								}
							}
						}
					}
				}
				JOINT RightShoulder
				{
					OFFSET 0 0 0
					CHANNELS 3 Zrotation Yrotation Xrotation
					JOINT RightArm
					{
						OFFSET -3.28999 1.24191 -0.26899
						CHANNELS 3 Zrotation Yrotation Xrotation
						JOINT RightForeArm
						{
							OFFSET -4.64462 -0.00000 0.00000
							CHANNELS 3 Zrotation Yrotation Xrotation
							JOINT RightHand
							{
								OFFSET -3.40703 -0.00000 0.00000
								CHANNELS 3 Zrotation Yrotation Xrotation
								JOINT RightFingerBase
								{
									OFFSET 0 0 0
									CHANNELS 3 Zrotation Yrotation Xrotation
									JOINT RightHandIndex1
									{
										OFFSET -0.61958 -0.00000 0.00000
										CHANNELS 3 Zrotation Yrotation Xrotation
										End Site
										{
											OFFSET -0.49952 -0.00000 0.00000
										}
									}
								}
								JOINT RThumb
								{
									OFFSET 0 0 0
									CHANNELS 3 Zrotation Yrotation Xrotation
									End Site
									{
										OFFSET -0.50715 -0.00000 0.50715
									}
								}
							}
						}
					}
				}
			}
		}
	}
}
MOTION
Frames: 5
Frame Time: .0083333
48.0957 16.7097 -8.1374 1079.6600 179.3620 1076.5500 0.0000 0.0000 0.0000 -22.0941 12.0767 -11.5358 0.1619 2.5926 7.1465 -0.0211 3.5900 -3.9703 0.3944 4.0325 11.1681 0.0000 0.0000 0.0000 18.9355 -5.7906 20.7041 -1.8305 -8.5037 24.2547 -0.2537 6.2526 -9.3460 -0.0478 -1.4110 3.8804 -0.9948 3.8025 2.8391 -3.1180 5.1376 0.2733 -2.8315 2.6247 -1.1061 1.7119 0.1076 -22.9843 1.8340 -1.0813 20.3407 0.1957 -0.1943 10.3084 0.0000 0.0000 0.0000 -84.0006 9.7671 23.0222 12.9315 -21.1867 -2.4285 -0.0000 -0.0000 14.0822 11.3857 -22.7173 -4.4469 -7.1250 0.0000 -0.0000 -10.9870 7.2016 9.7078 0.0000 0.0000 0.0000 88.2837 -0.2658 38.8333 -19.5806 30.1337 -5.3192 0.0000 0.0000 3.7180 -13.5238 -31.9734 7.2581 7.1250 -0.0000 -0.0000 21.8176 -61.3524 -8.9251
48.0623 16.7225 -8.2582 1079.4700 179.2660 1076.5800 0.0000 0.0000 0.0000 -22.4277 12.0937 -11.0632 0.1609 2.5845 7.1240 -0.0144 3.4937 -4.2203 0.3802 3.9598 10.9636 0.0000 0.0000 0.0000 18.4096 -5.4811 19.9900 -2.0856 -9.0422 25.9275 -0.1563 6.2818 -7.7419 -0.0279 -1.0786 2.9652 -1.0944 3.8019 2.7592 -3.1414 5.1351 0.2170 -2.7968 2.6239 -1.1258 1.9793 0.1006 -22.7586 1.3775 -1.0504 20.1818 -0.0058 -0.2168 10.2048 0.0000 -0.0000 0.0000 -84.0405 9.3012 23.4209 12.9846 -21.2647 -2.4477 -0.0000 -0.0000 13.8953 11.5561 -22.8626 -4.5422 -7.1250 0.0000 -0.0000 -10.8852 7.0385 9.6496 0.0000 -0.0000 0.0000 88.2800 -1.2052 39.1071 -19.5498 30.0961 -5.3037 0.0000 0.0000 2.6866 -13.8314 -32.1634 7.4668 7.1250 -0.0000 -0.0000 21.6529 -61.6026 -8.9828
48.0387 16.7365 -8.3769 1079.4000 179.3770 1076.5200 0.0000 0.0000 0.0000 -22.5016 12.4473 -10.5553 0.1543 2.5314 6.9767 -0.0030 3.0229 -4.1440 0.3895 4.0076 11.0979 0.0000 0.0000 0.0000 18.1509 -5.2981 19.4279 -2.3264 -9.5152 27.4208 -0.0457 6.3518 -5.5629 -0.1076 -2.1148 5.8230 -1.2248 3.7287 2.7965 -3.0867 5.0279 0.1734 -2.6703 2.5691 -1.2118 1.9072 0.1806 -22.7026 1.3789 -0.9216 20.3004 0.0257 -0.1641 10.2379 0.0000 -0.0000 0.0000 -83.9591 9.0257 24.4103 13.2316 -21.6256 -2.5380 -0.0000 -0.0000 13.0198 11.6659 -22.7963 -4.5738 -7.1250 0.0000 -0.0000 -10.8149 7.0922 9.5734 0.0000 -0.0000 0.0000 88.2641 -2.1836 39.3999 -19.5355 30.0787 -5.2966 0.0000 0.0000 1.5840 -14.2470 -32.3065 7.7280 7.1250 -0.0000 -0.0000 21.3310 -61.8374 -8.9611
48.0116 16.7474 -8.4961 1079.6000 179.3570 1076.4300 0.0000 0.0000 0.0000 -22.3336 12.0016 -9.7711 0.1554 2.5404 7.0017 0.0000 3.3674 -4.8077 0.4509 4.3079 11.9445 0.0000 0.0000 0.0000 18.1032 -5.2022 18.8153 -2.5790 -9.9801 28.9123 0.0345 6.3336 -3.4561 -0.1890 -2.7996 7.7214 -0.7964 3.7772 2.9287 -3.1430 5.0982 0.1083 -2.9806 2.6006 -1.3079 1.9138 0.1322 -22.6374 1.4533 -1.0221 20.4473 0.0351 -0.2032 10.2798 -0.0000 0.0000 0.0000 -83.6279 8.7487 25.5296 13.5130 -22.0342 -2.6426 -0.0000 -0.0000 12.2909 11.7280 -22.5875 -4.5590 -7.1250 0.0000 -0.0000 -10.7700 7.2926 9.4893 -0.0000 0.0000 0.0000 88.6250 -3.0925 38.5025 -19.3601 29.8637 -5.2089 0.0000 0.0000 2.2032 -13.2581 -32.0789 7.1325 7.1250 -0.0000 -0.0000 22.1921 -61.3840 -9.1035
47.9820 16.7564 -8.6060 1079.6700 179.3280 1076.1700 0.0000 0.0000 0.0000 -22.2356 11.8996 -8.9875 0.1608 2.5839 7.1223 0.0065 3.5412 -5.3495 0.5248 4.6425 12.8917 0.0000 0.0000 0.0000 17.8981 -5.1196 18.2554 -2.8649 -10.4732 30.5229 0.0661 5.9970 -1.9680 -0.1301 -2.3247 6.4039 -0.5675 3.7953 3.2771 -3.1537 5.1214 0.1097 -3.1466 2.6095 -1.4794 2.1238 0.1717 -22.6454 1.0457 -0.9445 20.6563 -0.1335 -0.2008 10.3531 0.0000 -0.0000 0.0000 -83.5149 8.3502 26.1272 13.7135 -22.3237 -2.7183 -0.0000 -0.0000 12.0402 11.9442 -22.4965 -4.6275 -7.1250 0.0000 -0.0000 -10.6324 7.3591 9.3496 0.0000 -0.0000 0.0000 88.7678 -3.8632 37.5435 -19.1105 29.5558 -5.0852 0.0000 0.0000 3.5200 -11.0015 -31.4748 5.7959 7.1250 -0.0000 -0.0000 24.0465 -60.2930 -9.2857
